<svg width="13" height="15" fill="none" xmlns="http://www.w3.org/2000/svg"><g clip-path="url(#clip0_2871_1173)" fill="#fff"><path d="M1.475 12a.632.632 0 00.103-.01l2.894-.553a.165.165 0 00.091-.052l7.294-7.948a.19.19 0 00.05-.132.19.19 0 00-.05-.132L8.997.053a.163.163 0 00-.244 0L1.459 8.002a.196.196 0 00-.048.1l-.508 3.154c-.016.1-.01.203.018.3a.64.64 0 00.144.258.56.56 0 00.41.186zm1.16-3.27l6.24-6.799 1.261 1.375-6.24 6.798-1.53.295.268-1.669zM0 14.25c0-.414.308-.75.688-.75h11.624c.38 0 .688.336.688.75s-.308.75-.688.75H.688C.308 15 0 14.664 0 14.25z"/></g><defs><clipPath id="clip0_2871_1173"><path fill="#fff" d="M0 0h13v15H0z"/></clipPath></defs></svg>