<svg width="155" height="19" fill="none" xmlns="http://www.w3.org/2000/svg"><path d="M153 19h-12v-2.025l6.558-6.716c1.752-1.758 2.628-3.268 2.628-4.53 0-1.03-.319-1.838-.956-2.425-.619-.604-1.398-.906-2.336-.906-1.752 0-3.027.835-3.823 2.505L141 3.677c.566-1.19 1.363-2.096 2.389-2.718C144.416.32 145.575 0 146.867 0c1.575 0 2.929.515 4.062 1.546 1.151 1.048 1.726 2.433 1.726 4.157 0 1.883-1.106 3.935-3.319 6.155l-4.752 4.744H153V19zM129 1.664L133.784 0h2.08v19h-2.392V2.6l-3.874 1.144-.598-2.08zm-11.329 5.611h2.815c1.822 0 3.358.524 4.61 1.572 1.269 1.048 1.904 2.478 1.904 4.29 0 1.83-.644 3.26-1.932 4.29-1.307 1.049-2.871 1.573-4.692 1.573-1.509 0-2.843-.346-4.002-1.04A5.555 5.555 0 01114 15.004l2.18-1.2c.258.889.755 1.573 1.491 2.052.736.48 1.638.72 2.705.72 1.233 0 2.217-.302 2.953-.906.755-.622 1.132-1.466 1.132-2.532s-.377-1.91-1.132-2.531c-.736-.622-1.702-.933-2.898-.933h-5.465L115.684 0h10.571v2.318h-8.253l-.331 4.957z" fill="#000"/><path d="M83.5 9.438c0-2.635.91-4.862 2.73-6.682C88.05.919 90.277 0 92.912 0c2.635 0 4.862.919 6.682 2.756 1.837 1.82 2.756 4.047 2.756 6.682 0 2.617-.919 4.845-2.756 6.682-1.82 1.837-4.047 2.756-6.682 2.756-2.635 0-4.862-.919-6.682-2.756-1.82-1.855-2.73-4.082-2.73-6.682zm16.432 0c0-2.01-.676-3.692-2.028-5.044-1.317-1.37-2.981-2.054-4.992-2.054-1.993 0-3.666.685-5.018 2.054-1.335 1.37-2.002 3.05-2.002 5.044 0 1.976.667 3.657 2.002 5.044 1.352 1.352 3.025 2.028 5.018 2.028 2.01 0 3.675-.676 4.992-2.028 1.352-1.387 2.028-3.068 2.028-5.044z" fill="#E22427"/><path d="M76 19V0h2.418v19H76zM55 0h7.22c2.503 0 4.593.923 6.268 2.769C70.162 4.596 71 6.84 71 9.5c0 2.642-.838 4.895-2.512 6.759C66.813 18.086 64.723 19 62.22 19H55V0zm2.46 16.611h4.76c1.904 0 3.447-.678 4.628-2.035 1.199-1.376 1.798-3.067 1.798-5.076 0-2.009-.6-3.7-1.798-5.076-1.199-1.357-2.742-2.035-4.628-2.035h-4.76V16.61zM36 12.391V0h2.48v12.285c0 1.332.391 2.38 1.173 3.144.8.764 1.92 1.146 3.36 1.146s2.551-.382 3.334-1.146c.8-.764 1.2-1.812 1.2-3.144V0H50v12.391c0 2.025-.649 3.633-1.947 4.824-1.297 1.19-2.977 1.785-5.04 1.785-2.08 0-3.769-.595-5.066-1.785C36.649 16.025 36 14.416 36 12.39zM18 0h13.13v2.288h-5.382V19h-2.392V2.288H18V0zM6.795 19c-1.675 0-3.111-.393-4.308-1.178C1.307 17.02.48 15.912 0 14.5l2.051-1.204c.684 2.216 2.282 3.324 4.795 3.324 1.214 0 2.145-.253 2.795-.76.667-.505 1-1.195 1-2.067 0-.855-.325-1.51-.974-1.963-.582-.401-1.667-.863-3.257-1.387l-1.718-.576a32.072 32.072 0 01-1.487-.68c-.598-.314-1.034-.628-1.308-.942C1.145 7.406.77 6.386.77 5.182c0-1.605.547-2.862 1.641-3.769C3.504.471 4.838 0 6.41 0c1.402 0 2.633.358 3.693 1.073s1.854 1.692 2.384 2.931l-2 1.178C9.718 3.298 8.36 2.355 6.41 2.355c-.974 0-1.76.245-2.359.733-.598.489-.897 1.152-.897 1.99 0 .802.282 1.412.846 1.831.581.436 1.556.872 2.923 1.309l1.051.34c.582.227.898.349.95.366.546.21 1.144.497 1.794.864.462.262.923.663 1.385 1.204.598.61.897 1.526.897 2.748 0 1.605-.573 2.887-1.718 3.847C10.137 18.529 8.641 19 6.795 19z" fill="#000"/></svg>