<svg width="28" height="28" fill="none" xmlns="http://www.w3.org/2000/svg"><g clip-path="url(#clip0_2761_4528)" fill="#fff"><path d="M16.828 25.503c-.23.057-.466.108-.7.151a1.127 1.127 0 00.41 2.214c.279-.051.56-.112.834-.18a1.125 1.125 0 10-.544-2.185zm8.324-15.088a1.125 1.125 0 102.137-.708 14.052 14.052 0 00-.292-.8 1.126 1.126 0 10-2.09.835c.088.22.17.447.245.673zm-4.666 13.481c-.199.131-.404.258-.61.377a1.126 1.126 0 001.125 1.95c.245-.142.49-.292.726-.449a1.126 1.126 0 00-1.241-1.878zM27.99 13.56a1.126 1.126 0 00-2.25.088c.01.237.012.478.006.715a1.124 1.124 0 001.1 1.15 1.126 1.126 0 001.15-1.1c.007-.283.005-.57-.007-.854zm-3.021 7.375a1.125 1.125 0 00-1.577.225c-.142.19-.293.378-.447.56a1.126 1.126 0 001.714 1.459c.184-.216.363-.44.534-.668a1.126 1.126 0 00-.224-1.576zm1.654-4.069a1.126 1.126 0 00-1.41.737c-.072.227-.15.454-.236.677a1.126 1.126 0 002.104.802c.1-.265.195-.536.28-.805a1.126 1.126 0 00-.738-1.411zm-14.706 8.799a11.62 11.62 0 01-2.887-.918c-.01-.005-.02-.012-.032-.017a12.294 12.294 0 01-.643-.326c-.383-.21-.756-.444-1.12-.7C1.94 19.974.667 12.632 4.398 7.337a11.697 11.697 0 012.887-2.872l.04-.028C11.18 1.78 16.417 1.6 20.512 4.33l-.88 1.27c-.244.354-.094.612.334.574l3.82-.342a.63.63 0 00.57-.824L23.33 1.313c-.115-.414-.409-.463-.654-.11l-.881 1.274A13.9 13.9 0 0011.609.31c-.36.062-.716.139-1.066.227l-.007.002-.04.011a13.88 13.88 0 00-7.697 5.158c-.016.02-.033.038-.048.06a13.3 13.3 0 00-.487.701c-.012.018-.021.036-.031.054a13.877 13.877 0 00-2.219 8.185v.029c.013.282.036.569.066.85.002.019.006.036.009.054a13.892 13.892 0 004.037 8.385l.014.015.006.004c.55.543 1.148 1.045 1.793 1.499a13.878 13.878 0 005.581 2.335 1.125 1.125 0 10.397-2.215z"/><path d="M13.31 5.008a.911.911 0 00-.912.91v9.074l8.299 4.29a.91.91 0 00.836-1.618l-7.314-3.781V5.918a.91.91 0 00-.91-.91z"/></g><defs><clipPath id="clip0_2761_4528"><path fill="#fff" d="M0 0h28v28H0z"/></clipPath></defs></svg>